<svg width="21" height="18" viewBox="0 0 21 18" fill="none" xmlns="http://www.w3.org/2000/svg">
<path d="M21 5.8125C21 12.375 11.2697 17.6869 10.8553 17.9062C10.7461 17.965 10.624 17.9958 10.5 17.9958C10.376 17.9958 10.2539 17.965 10.1447 17.9062C9.83062 17.7375 4.18687 14.6541 1.45594 10.3228C1.42071 10.2661 1.40127 10.201 1.39963 10.1342C1.39799 10.0674 1.41421 10.0015 1.44661 9.94307C1.47901 9.88467 1.52641 9.83599 1.58393 9.80205C1.64144 9.76811 1.70697 9.75014 1.77375 9.75H5.25C5.37351 9.75008 5.49512 9.71966 5.60405 9.66143C5.71297 9.60321 5.80583 9.51899 5.87438 9.41625L6.75 8.10375L9.12562 11.6663C9.21665 11.8028 9.34993 11.9057 9.50505 11.9592C9.66016 12.0127 9.82854 12.0139 9.98438 11.9625C10.1496 11.9067 10.2908 11.7963 10.3847 11.6494L11.6512 9.75H13.5C13.6028 9.75023 13.7046 9.72931 13.799 9.68855C13.8934 9.64779 13.9784 9.58806 14.0487 9.51306C14.119 9.43807 14.1732 9.34942 14.2078 9.25261C14.2425 9.1558 14.2568 9.0529 14.25 8.95031C14.2332 8.75753 14.1442 8.57823 14.0007 8.44835C13.8573 8.31847 13.6701 8.24761 13.4766 8.25H11.25C11.1265 8.24992 11.0049 8.28034 10.896 8.33857C10.787 8.39679 10.6942 8.48101 10.6256 8.58375L9.75 9.89625L7.37438 6.33375C7.28335 6.19723 7.15007 6.09433 6.99495 6.04082C6.83984 5.98731 6.67146 5.98614 6.51562 6.0375C6.35044 6.09327 6.20922 6.20373 6.11531 6.35063L4.84875 8.25H0.705938C0.625793 8.25022 0.547685 8.22476 0.483066 8.17735C0.418448 8.12994 0.370718 8.06308 0.346875 7.98656C0.120672 7.2839 0.00368442 6.55067 0 5.8125C0.00173694 4.27146 0.614681 2.79404 1.70436 1.70436C2.79404 0.614681 4.27146 0.00173694 5.8125 0C7.74844 0 9.44344 0.8325 10.5 2.23969C11.5566 0.8325 13.2516 0 15.1875 0C16.7285 0.00173694 18.206 0.614681 19.2956 1.70436C20.3853 2.79404 20.9983 4.27146 21 5.8125Z" fill="#865BE9"/>
</svg>
